<svg data-v-0dd9719b="" version="1.0" xmlns="http://www.w3.org/2000/svg" xmlns:xlink="http://www.w3.org/1999/xlink" width="100%" height="100%" viewBox="0 0 340.000000 250.000000" preserveAspectRatio="xMidYMid meet" color-interpolation-filters="sRGB" style="margin: auto;"> <rect data-v-0dd9719b="" x="0" y="0" width="100%" height="100%" fill="#fff" fill-opacity="1" class="background"></rect> <rect data-v-0dd9719b="" x="0" y="0" width="100%" height="100%" fill="url(#watermark)" fill-opacity="1" class="watermarklayer"></rect> <g data-v-0dd9719b="" fill="#333" class="icon-text-wrapper icon-svg-group iconsvg" transform="translate(72.92469787597656,87.19161605834961)"><g class="iconsvg-imagesvg" transform="translate(0,7.5950775146484375)"><g><rect fill="#333" fill-opacity="0" stroke-width="2" x="0" y="0" width="60" height="60.42661187987189" class="image-rect"></rect> <svg x="0" y="0" width="60" height="60.42661187987189" filtersec="colorsb4795874436" class="image-svg-svg primary" style="overflow: visible;"><svg xmlns="http://www.w3.org/2000/svg" viewBox="-0.00007295608520507812 -0.012500002980232239 198.6751251220703 200.08778381347656"><path d="M169.46 108.65c-.5-.64-.25-1.39-.25-2.08V42.63a12.23 12.23 0 0 0-1-5.1 2 2 0 0 1 .5-2.68Q180.71 23 192.63 11l2.93-2.93c1.25-1.26 1.5-1.24 2.1.48a14.46 14.46 0 0 1 .9 4.76v65a3.27 3.27 0 0 1-1 2.58q-13.51 13.44-27 26.93c-.26.37-.56.8-1.1.83zM29.07 91.28c.57.68.33 1.44.33 2.13v63.41a13.37 13.37 0 0 0 1.11 6A1.71 1.71 0 0 1 30 165q-13.6 13.56-27.17 27.18c-.95 1-1.32.67-1.74-.38a13.53 13.53 0 0 1-1-5.1v-65.39a2.5 2.5 0 0 1 .71-2q13.88-13.83 27.74-27.7a3.06 3.06 0 0 1 .53-.33z" fill="#df232e"></path><path d="M45.47 200h-32a13.48 13.48 0 0 1-5-.82c-1.28-.5-1.52-1-.4-2.07 4.43-4.33 8.78-8.75 13.17-13.13 4.55-4.55 9.12-9.09 13.65-13.67a2.17 2.17 0 0 1 2.83-.66 12 12 0 0 0 5.13.79h64.72c.46.05 1.11-.21 1.33.28s-.43.91-.78 1.26L81 199.16a3.27 3.27 0 0 1-2.64.8zM153.14.05h32a13.15 13.15 0 0 1 4.78.79c1.7.63 1.75.86.52 2.1q-8.35 8.37-16.72 16.72c-3.38 3.34-6.72 6.68-10.08 10.08a2.17 2.17 0 0 1-2.83.64 11.11 11.11 0 0 0-4.59-.79H91.36c-.58 0-1.38.33-1.67-.28s.52-1 .91-1.37q13.32-13.35 26.65-26.69a3.85 3.85 0 0 1 3-1.22c10.97.04 21.93.02 32.89.02z" fill="#1f9aab"></path><path d="M.05 75.51v-30.9c0-8 5.77-13.76 13.78-13.78h13.91c1.21 0 1.68.29 1.68 1.6q-.06 23.4 0 46.8a2.67 2.67 0 0 1-.83 2.08Q15 94.81 1.49 108.35c-.33.33-.64.9-1.16.64s-.27-.87-.27-1.32Q0 91.59.05 75.51zM198.56 124.59c0 10-.16 20.1.05 30.15.18 8.79-6.57 14.85-14.42 14.48-4.44-.21-8.9-.07-13.36 0-1.23 0-1.67-.32-1.66-1.61v-46.76a2.93 2.93 0 0 1 1-2.22q13.5-13.44 26.95-26.92c.34-.33.67-.91 1.16-.71.64.26.31 1 .31 1.46q-.02 16.05-.03 32.13z" fill="#b12258"></path><path d="M73.47.05h32.35c.52 0 1.27-.25 1.5.25.31.66-.48 1-.88 1.38Q93.12 15 79.79 28.39A3.63 3.63 0 0 1 77 29.62H31.28c-1.67 0-2-.56-2-2.07.08-4.88 0-9.76 0-14.64A12.92 12.92 0 0 1 41.85.11C52.39 0 62.93.07 73.47.07zM125 200H92.8c-.51 0-1.25.28-1.5-.24-.32-.67.46-1 .85-1.41 8.84-8.86 17.71-17.68 26.53-26.56a4.28 4.28 0 0 1 3.32-1.38q22.5.09 45 0c1.77 0 2.43.35 2.37 2.25-.14 4.76-.1 9.52-.05 14.27.08 7.32-6.5 13.2-13.09 13.11-10.43-.19-20.85-.04-31.23-.04z" fill="#f5ab1d"></path></svg></svg> <!----></g></g> <g transform="translate(67,0)"><g data-gra="path-name" fill-rule="" class="tp-name iconsvg-namesvg" transform="translate(0,0)"><g transform="scale(1)"><g><path d="M16.58-13.48L24.89-25.08 16.62-25.08 10.55-16.04 9.57-16.04 9.57-25.08 2.38-25.08 2.38 0 9.57 0 9.57-10.41 10.55-10.41 16.69 0 25.26 0ZM39.35 0.36C41.66 0.36 43.94-0.07 45.49-0.65L45.49-6.76C43.57-6.07 41.59-5.85 39.71-5.85 36.17-5.85 34.58-7.15 34.58-12.54 34.58-17.67 35.99-19.37 39.6-19.37 41.66-19.37 43.5-19.04 45.2-18.43L45.2-24.53C43.65-25.11 41.48-25.44 39.02-25.44 31.51-25.44 26.7-22.22 26.7-12.54 26.7-2.02 31.69 0.36 39.35 0.36ZM56.44-6.18L56.44-25.08 49.25-25.08 49.25 0 65.72 0 65.72-6.18ZM86.82 0L94.48 0 85.34-25.08 75.62-25.08 66.41 0 73.92 0 75.69-5.28 85.09-5.28ZM77.61-11.06L80.21-18.9 80.64-18.9 83.21-11.06ZM99.87 0L108.83 0 111.83-13.87 112.04-13.87 114.97 0 123.93 0 129.53-25.08 122.02-25.08 119.09-8.64 118.87-8.64 116.34-23.05 108.18-23.05 105.29-8.64 105.07-8.64 102.29-25.08 94.74-25.08Z" transform="translate(-2.380000114440918, 25.440000534057617)"></path></g> <!----> <!----> <!----> <!----> <!----> <!----> <g data-gra="path-name-1" fill="#333" transform="translate(0,28.800004959106445)"><g transform="scale(1.02129)"><path d="M21.19-30.33L21.19-19.71 11.58-19.71 11.58-30.33 2.88-30.33 2.88 0 11.58 0 11.58-12.45 21.19-12.45 21.19 0 29.89 0 29.89-30.33ZM49.16 0.44C58.21 0.44 63.45-2.67 63.45-15.16 63.45-27.62 58.21-30.76 49.16-30.76 40.16-30.76 34.87-27.62 34.87-15.16 34.87-2.67 40.16 0.44 49.16 0.44ZM49.16-6.73C45.01-6.73 44.05-8.65 44.05-15.16 44.05-21.76 45.01-23.73 49.16-23.73 53.31-23.73 54.32-21.76 54.32-15.16 54.32-8.65 53.31-6.73 49.16-6.73ZM68.43 0L76.99 0 76.99-20.28 77.26-20.28 84.47 0 96.57 0 96.57-30.33 88.09-30.33 88.09-11.32 87.83-11.32 81.54-30.33 68.43-30.33ZM117.02 0.44C120.74 0.44 125.06-0.26 127.38-0.96L127.38-18.48 114.92-18.48 114.92-11.23 119.38-11.23 119.38-6.82C118.73-6.77 118.64-6.77 117.46-6.77 112.04-6.77 111.17-8.83 111.17-15.16 111.17-21.24 112.78-23.42 117.85-23.42 120.17-23.42 122.96-23.03 125.41-22.2L125.41-29.76C123.62-30.33 120.04-30.76 117.11-30.76 107.54-30.76 101.55-26.87 101.55-15.16 101.55-2.45 107.28 0.44 117.02 0.44Z" transform="translate(-2.880000114440918, 30.760000228881836)"></path></g></g></g></g> <g data-gra="path-slogan" fill-rule="" class="tp-slogan iconsvg-slogansvg" fill="#333" transform="translate(5,66.66426086425781)"><rect x="0" height="1" y="3.9750008583068848" width="13.455299377441406"></rect> <rect height="1" y="3.9750008583068848" width="13.455299377441406" x="103.69529724121094"></rect> <g transform="translate(16.455299377441406,0)"><g transform="scale(1)"><path d="M3.42-4.31L2.06-3.05L2.06 0L0.89 0L0.89-8.58L2.06-8.58L2.06-4.41L6.23-8.58L7.88-8.58L4.27-5.11L7.97 0L6.42 0L3.42-4.31ZM15.66-4.27L15.66-4.27Q15.47-7.64 12.66-7.83L12.66-7.83Q9.80-7.69 9.66-4.27L9.66-4.27Q9.80-0.94 12.66-0.80L12.66-0.80Q15.47-0.98 15.66-4.27ZM16.83-4.27L16.83-4.27Q16.55 0 12.66 0.14L12.66 0.14Q8.72 0 8.44-4.27L8.44-4.27Q8.67-8.72 12.66-8.81L12.66-8.81Q16.55-8.67 16.83-4.27ZM19.59-8.58L23.91-1.64L23.91-8.58L25.03-8.58L25.03 0L23.72 0L19.36-6.94L19.31-6.94L19.31 0L18.19 0L18.19-8.58L19.59-8.58ZM33.23-3.61L30.61-3.61L30.61-4.59L34.36-4.59L34.36 0L33.61 0L33.33-1.08Q32.34 0.09 30.52 0.14L30.52 0.14Q28.78 0.14 27.84-0.75L27.84-0.75Q26.44-2.06 26.48-4.36L26.48-4.36Q26.81-8.63 30.56-8.81L30.56-8.81Q33.75-8.63 34.22-6L34.22-6L33.09-6Q32.63-7.78 30.52-7.83L30.52-7.83Q27.84-7.64 27.70-4.31L27.70-4.31Q27.70-0.75 30.56-0.75L30.56-0.75Q31.59-0.75 32.34-1.31L32.34-1.31Q33.28-2.06 33.23-3.61L33.23-3.61ZM39.47-8.58L40.64-8.58L40.64-1.03L45-1.03L45 0L39.47 0L39.47-8.58ZM46.31-8.58L47.48-8.58L47.48 0L46.31 0L46.31-8.58ZM57.70-8.58L57.70 0L56.58 0L56.58-5.06Q56.58-5.77 56.58-7.22L56.58-7.22L54.14 0L52.97 0L50.58-7.22L50.53-7.22Q50.53-6.70 50.58-5.67L50.58-5.67Q50.58-5.16 50.58-5.06L50.58-5.06L50.58 0L49.41 0L49.41-8.58L51.09-8.58L53.58-1.31L56.02-8.58L57.70-8.58ZM59.58-8.58L60.75-8.58L60.75 0L59.58 0L59.58-8.58ZM64.92-7.59L62.02-7.59L62.02-8.58L68.95-8.58L68.95-7.59L66.05-7.59L66.05 0L64.92 0L64.92-7.59ZM71.30-1.03L76.45-1.03L76.45 0L70.13 0L70.13-8.58L76.36-8.58L76.36-7.59L71.30-7.59L71.30-4.92L75.98-4.92L75.98-3.89L71.30-3.89L71.30-1.03ZM81.47 0L78 0L78-8.58L81.52-8.58Q84.98-8.39 85.13-4.41L85.13-4.41Q84.94-0.09 81.47 0L81.47 0ZM81.33-7.64L79.17-7.64L79.17-0.98L81.42-0.98Q83.86-1.13 83.95-4.31L83.95-4.31Q83.91-7.55 81.33-7.64L81.33-7.64Z" transform="translate(-0.890625, 8.8125)"></path></g></g></g></g></g><defs v-gra="od"></defs></svg>